REM DIRINDEX 1\2,1\3,1\4,1\5,1\6
REM DIRNAME folder01,folder02,folder03,folder04,folder05,folder06
TITLE ""
FILE "Disc4Track63.mp3" MP3
  TRACK 01 AUDIO
    TITLE "2:cjc030_07942"
    INDEX 01 00:00:00
  TRACK 02 AUDIO
    TITLE "0:"
    INDEX 01 00:03:55
  TRACK 03 AUDIO
    TITLE "3:cjc030_07943"
    INDEX 01 00:04:17
  TRACK 04 AUDIO
    TITLE "0:"
    INDEX 01 00:05:50
  TRACK 05 AUDIO
    TITLE "4:cjc030_07944"
    INDEX 01 00:05:59
  TRACK 06 AUDIO
    TITLE "0:"
    INDEX 01 00:06:57
  TRACK 07 AUDIO
    TITLE "5:cjc030_07945"
    INDEX 01 00:06:65
  TRACK 08 AUDIO
    TITLE "0:"
    INDEX 01 00:08:24
  TRACK 09 AUDIO
    TITLE "3:cjc030_07946"
    INDEX 01 00:08:73
  TRACK 10 AUDIO
    TITLE "0:"
    INDEX 01 00:10:31
  TRACK 11 AUDIO
    TITLE "4:cjc030_07947"
    INDEX 01 00:10:41
  TRACK 12 AUDIO
    TITLE "0:"
    INDEX 01 00:11:42
  TRACK 13 AUDIO
    TITLE "5:cjc030_07948"
    INDEX 01 00:11:50
  TRACK 14 AUDIO
    TITLE "0:"
    INDEX 01 00:13:08
  TRACK 15 AUDIO
    TITLE "6:cjc030_07949"
    INDEX 01 00:13:24
  TRACK 16 AUDIO
    TITLE "0:"
    INDEX 01 00:15:28
  TRACK 17 AUDIO
    TITLE "3:cjc030_07950"
    INDEX 01 00:16:02
  TRACK 18 AUDIO
    TITLE "0:"
    INDEX 01 00:17:55
  TRACK 19 AUDIO
    TITLE "4:cjc030_07951"
    INDEX 01 00:17:59
  TRACK 20 AUDIO
    TITLE "0:"
    INDEX 01 00:19:22
  TRACK 21 AUDIO
    TITLE "5:cjc030_07952"
    INDEX 01 00:19:32
  TRACK 22 AUDIO
    TITLE "0:"
    INDEX 01 00:21:04
  TRACK 23 AUDIO
    TITLE "3:cjc030_07953"
    INDEX 01 00:21:64
  TRACK 24 AUDIO
    TITLE "0:"
    INDEX 01 00:23:16
  TRACK 25 AUDIO
    TITLE "4:cjc030_07954"
    INDEX 01 00:23:22
  TRACK 26 AUDIO
    TITLE "0:"
    INDEX 01 00:24:69
  TRACK 27 AUDIO
    TITLE "5:cjc030_07955"
    INDEX 01 00:25:01
  TRACK 28 AUDIO
    TITLE "0:"
    INDEX 01 00:26:30
  TRACK 29 AUDIO
    TITLE "6:cjc030_07956"
    INDEX 01 00:26:42
  TRACK 30 AUDIO
    TITLE "0:"
    INDEX 01 00:28:41
  TRACK 31 AUDIO
    TITLE "3:cjc030_07957"
    INDEX 01 00:29:17
  TRACK 32 AUDIO
    TITLE "0:"
    INDEX 01 00:30:32
  TRACK 33 AUDIO
    TITLE "4:cjc030_07958"
    INDEX 01 00:30:38
  TRACK 34 AUDIO
    TITLE "0:"
    INDEX 01 00:32:52
  TRACK 35 AUDIO
    TITLE "5:cjc030_07959"
    INDEX 01 00:32:62
  TRACK 36 AUDIO
    TITLE "0:"
    INDEX 01 00:34:02
  TRACK 37 AUDIO
    TITLE "6:cjc030_07960"
    INDEX 01 00:34:14
  TRACK 38 AUDIO
    TITLE "0:"
    INDEX 01 00:38:22
  TRACK 39 AUDIO
    TITLE "3:cjc030_07961"
    INDEX 01 00:38:73
  TRACK 40 AUDIO
    TITLE "0:"
    INDEX 01 00:40:23
  TRACK 41 AUDIO
    TITLE "4:cjc030_07962"
    INDEX 01 00:40:30
  TRACK 42 AUDIO
    TITLE "0:"
    INDEX 01 00:42:18
  TRACK 43 AUDIO
    TITLE "5:cjc030_07963"
    INDEX 01 00:42:27
  TRACK 44 AUDIO
    TITLE "0:"
    INDEX 01 00:43:50
  TRACK 45 AUDIO
    TITLE "6:cjc030_07964"
    INDEX 01 00:43:64
  TRACK 46 AUDIO
    TITLE "0:"
    INDEX 01 00:48:00
  TRACK 47 AUDIO
    TITLE "3:cjc030_07965"
    INDEX 01 00:48:48
  TRACK 48 AUDIO
    TITLE "0:"
    INDEX 01 00:50:09
  TRACK 49 AUDIO
    TITLE "4:cjc030_07966"
    INDEX 01 00:50:17
  TRACK 50 AUDIO
    TITLE "0:"
    INDEX 01 00:52:24
  TRACK 51 AUDIO
    TITLE "5:cjc030_07967"
    INDEX 01 00:52:32
  TRACK 52 AUDIO
    TITLE "0:"
    INDEX 01 00:53:68
  TRACK 53 AUDIO
    TITLE "3:cjc030_07968"
    INDEX 01 00:54:52
  TRACK 54 AUDIO
    TITLE "0:"
    INDEX 01 00:56:02
  TRACK 55 AUDIO
    TITLE "4:cjc030_07969"
    INDEX 01 00:56:10
  TRACK 56 AUDIO
    TITLE "0:"
    INDEX 01 00:59:67
  TRACK 57 AUDIO
    TITLE "5:cjc030_07970"
    INDEX 01 01:00:02
  TRACK 58 AUDIO
    TITLE "0:"
    INDEX 01 01:01:25
  TRACK 59 AUDIO
    TITLE "6:cjc030_07971"
    INDEX 01 01:01:40
  TRACK 60 AUDIO
    TITLE "0:"
    INDEX 01 01:05:05
  TRACK 61 AUDIO
    TITLE "3:cjc030_07972"
    INDEX 01 01:05:52
  TRACK 62 AUDIO
    TITLE "0:"
    INDEX 01 01:07:06
  TRACK 63 AUDIO
    TITLE "4:cjc030_07973"
    INDEX 01 01:07:14
  TRACK 64 AUDIO
    TITLE "0:"
    INDEX 01 01:09:40
  TRACK 65 AUDIO
    TITLE "5:cjc030_07974"
    INDEX 01 01:09:50
  TRACK 66 AUDIO
    TITLE "0:"
    INDEX 01 01:11:02
